# Blender v3.1.2 OBJ File: 'mockup1.blend'
# www.blender.org
o box_techpackZeichenfläche_1@3x
v -0.421585 0.002787 -0.390558
v 0.441802 0.002787 -0.390558
v 0.441803 1.704922 0.428353
v 0.442300 1.692044 0.431094
v -0.419270 1.689371 -0.396626
v -0.405695 1.695997 -0.400000
v 0.434217 1.682632 0.433246
v 0.405263 1.682632 0.392711
v 0.021145 1.682632 0.354106
v 0.001842 1.682632 0.344455
v -0.003948 1.682632 0.325153
v -0.003948 1.682632 -0.329199
v 0.015354 1.682632 -0.354292
v 0.040447 1.682632 -0.356223
v 0.401403 1.682632 -0.356223
v 0.420705 1.682632 -0.379385
v 0.432030 1.695996 -0.393847
v 0.437821 1.695996 0.433720
v 0.389565 1.665706 0.393593
v 0.350960 1.563306 0.328001
v 0.337448 1.548678 0.318631
v 0.316216 1.538926 0.312384
v -0.305322 1.537301 0.311343
v -0.326555 1.551929 0.320713
v -0.336206 1.573059 0.334248
v -0.363229 1.655953 0.387346
v -0.405695 1.695997 0.433720
v -0.405695 1.695997 -0.374545
v -0.405695 1.698289 -0.400000
v -0.419270 1.698289 -0.400000
v -0.400554 1.689371 -0.382692
v -0.404364 1.689371 -0.364301
v -0.008469 1.689371 -0.365891
v 0.007430 1.689371 -0.354762
v 0.013790 1.689371 -0.335683
v 0.012199 1.689371 0.333681
v 0.001070 1.689371 0.347991
v -0.019599 1.689371 0.355941
v -0.388465 1.689371 0.392509
v -0.419270 1.689371 0.428353
v -0.075119 1.689067 0.428353
v -0.051270 1.649274 0.428353
v -0.035370 1.622245 0.428353
v -0.008341 1.619066 0.428353
v 0.029817 1.620656 0.428353
v 0.061616 1.630195 0.428353
v 0.077515 1.666764 0.428353
v 0.091825 1.681117 0.428353
v 0.441803 1.704922 0.412645
v 0.441803 1.696972 0.391976
v 0.441803 1.646094 0.384027
v 0.441803 1.596806 0.245702
v 0.441802 0.142092 0.246299
v 0.441802 0.118029 0.246258
v 0.441802 0.047963 0.388231
v 0.441802 0.022147 0.395611
v 0.441802 0.002787 0.427431
v 0.437666 0.025930 -0.390558
v 0.413696 0.048057 -0.390558
v 0.371286 0.053588 -0.390558
v 0.338096 0.180817 -0.390558
v 0.319658 0.191880 -0.390558
v -0.309108 0.191880 -0.390558
v -0.325703 0.177129 -0.390558
v -0.373644 0.044369 -0.390558
v -0.408678 0.042525 -0.390558
v -0.421585 0.022243 -0.390558
v -0.419270 0.002787 0.429275
v -0.386081 0.003709 0.379941
v -0.004396 0.003709 0.346751
v 0.012199 0.003709 0.332000
v 0.017731 0.003709 0.309873
v 0.014043 0.003709 -0.355770
v -0.000708 0.003709 -0.372365
v -0.019147 0.003709 -0.377897
v -0.378705 0.003709 -0.370521
v -0.419270 0.003709 -0.400000
v 0.442299 0.010162 -0.400000
v 0.398968 0.010162 -0.348822
v 0.026503 0.010163 -0.356198
v 0.008064 0.010163 -0.345135
v 0.000688 0.010163 -0.317476
v 0.000688 0.010163 0.333416
v 0.008063 0.010163 0.351855
v 0.408187 0.010162 0.390577
v 0.442299 0.010162 0.439708
v 0.442300 1.692044 -0.400000
v 0.439892 1.682632 -0.389916
vt 0.058933 0.715758
vt 0.249324 0.716723
vt 0.076108 0.818061
vt 0.479952 0.707072
vt 0.476026 0.707072
vt 0.476026 0.707615
vt 0.495828 0.816449
vt 0.488148 0.810884
vt 0.488552 0.711910
vt 0.689469 0.282044
vt 0.690646 0.708731
vt 0.480335 0.707637
vt 0.794522 0.687266
vt 0.787651 0.688061
vt 0.919155 0.294491
vt 0.955237 0.318023
vt 0.920224 0.694024
vt 0.907918 0.071789
vt 0.908373 0.283888
vt 0.891029 0.058473
vt 0.689469 0.070558
vt 0.701656 0.060778
vt 0.486971 0.273286
vt 0.659938 0.174177
vt 0.677751 0.275130
vt 0.260567 0.283888
vt 0.046666 0.705383
vt 0.044476 0.286193
vt 0.059476 0.276513
vt 0.074007 0.174638
vt 0.247443 0.274208
vt 0.465231 0.932911
vt 0.292505 0.967655
vt 0.273859 0.930015
vt 0.476026 0.712863
vt 0.261591 0.921812
vt 0.263064 0.708037
vt 0.048629 0.708520
vt 0.260338 0.706494
vt 0.261065 0.709020
vt 0.255212 0.711898
vt 0.071201 0.816613
vt 0.068747 0.811788
vt 0.249324 0.806962
vt 0.242454 0.818061
vt 0.248833 0.813236
vt 0.479003 0.283888
vt 0.680946 0.715885
vt 0.671649 0.808102
vt 0.669628 0.813269
vt 0.665991 0.816051
vt 0.490978 0.814859
vt 0.483877 0.712863
vt 0.777546 0.710718
vt 0.783609 0.694819
vt 0.900807 0.708731
vt 0.812306 0.690049
vt 0.819986 0.708731
vt 0.816348 0.699191
vt 0.804222 0.687664
vt 0.912949 0.708731
vt 0.917279 0.288037
vt 0.955247 0.312007
vt 0.955388 0.681702
vt 0.918203 0.706743
vt 0.907904 0.065387
vt 0.901811 0.059856
vt 0.689469 0.066309
vt 0.692750 0.061239
vt 0.713844 0.027588
vt 0.718063 0.023900
vt 0.877905 0.023900
vt 0.882592 0.026666
vt 0.485097 0.183396
vt 0.490721 0.175099
vt 0.486503 0.178787
vt 0.665563 0.175560
vt 0.669313 0.179709
vt 0.069320 0.176482
vt 0.239474 0.174638
vt 0.246505 0.176482
vt 0.249318 0.181092
vt 0.476026 0.923259
vt 0.458361 0.957521
vt 0.450510 0.968137
vt 0.455908 0.963794
vt 0.287108 0.964760
vt 0.283673 0.960416
vn 0.0000 1.0000 0.0000
vn 0.0000 -0.0000 -1.0000
vn -1.0000 0.0000 -0.0000
vn 0.0001 0.0006 1.0000
vn 1.0000 -0.0000 -0.0000
vn -0.0000 -1.0000 -0.0000
vn -0.0000 -0.5394 0.8421
vn -0.6256 0.6395 0.4469
vn -0.9688 0.2478 0.0000
vn -0.2361 0.9717 -0.0104
vn -0.0000 -0.0000 1.0000
vn 0.0001 0.0005 1.0000
vn 0.0021 0.0000 1.0000
vn 0.0001 -0.0005 1.0000
vn 0.0002 -0.0005 1.0000
vn 0.0000 -0.0006 1.0000
vn 0.0261 -0.9997 -0.0011
vn -0.0000 -0.7981 0.6025
vn 0.0043 -0.7549 0.6558
vn 0.5771 0.5238 0.6266
vn 0.0039 0.8443 -0.5358
s off
f 8/1/1 15/2/1 11/3/1
f 30/4/2 29/5/2 6/6/2
f 35/7/1 33/8/1 32/9/1
f 68/10/3 40/11/3 5/12/3
f 44/13/4 43/14/4 68/10/4
f 55/15/5 53/16/5 51/17/5
f 68/10/6 2/18/6 57/19/6
f 60/20/2 1/21/2 65/22/2
f 76/23/6 72/24/6 69/25/6
f 78/26/5 4/27/5 86/28/5
f 85/29/6 83/30/6 79/31/6
f 26/32/7 22/33/7 19/34/7
f 28/35/1 18/36/1 17/37/1
f 7/38/8 4/27/8 8/1/8
f 4/27/9 87/39/9 88/40/9
f 88/40/1 16/41/1 15/2/1
f 4/27/10 88/40/10 8/1/10
f 10/42/1 9/43/1 11/3/1
f 9/43/1 8/1/1 11/3/1
f 15/2/1 14/44/1 12/45/1
f 14/44/1 13/46/1 12/45/1
f 8/1/1 88/40/1 15/2/1
f 12/45/1 11/3/1 15/2/1
f 6/6/2 87/39/2 77/47/2
f 87/39/2 78/26/2 77/47/2
f 77/47/2 30/4/2 6/6/2
f 5/12/1 40/11/1 32/9/1
f 40/11/1 39/48/1 32/9/1
f 39/48/1 38/49/1 32/9/1
f 38/49/1 37/50/1 36/51/1
f 32/9/1 38/49/1 36/51/1
f 36/51/1 35/7/1 32/9/1
f 35/7/1 34/52/1 33/8/1
f 32/9/1 31/53/1 5/12/1
f 5/12/3 30/4/3 77/47/3
f 77/47/3 68/10/3 5/12/3
f 41/54/11 40/11/11 42/55/11
f 40/11/12 68/10/12 43/14/12
f 42/55/11 40/11/11 43/14/11
f 68/10/13 57/19/13 44/13/13
f 57/19/14 3/56/14 46/57/14
f 3/56/11 48/58/11 47/59/11
f 3/56/11 47/59/11 46/57/11
f 57/19/15 46/57/15 45/60/15
f 57/19/16 45/60/16 44/13/16
f 49/61/5 3/56/5 51/17/5
f 3/56/5 57/19/5 51/17/5
f 57/19/5 56/62/5 55/15/5
f 55/15/5 54/63/5 53/16/5
f 53/16/5 52/64/5 51/17/5
f 51/17/5 50/65/5 49/61/5
f 57/19/5 55/15/5 51/17/5
f 68/10/6 1/21/6 2/18/6
f 58/66/2 2/18/2 59/67/2
f 2/18/2 1/21/2 60/20/2
f 1/21/2 67/68/2 65/22/2
f 67/68/2 66/69/2 65/22/2
f 65/22/2 64/70/2 63/71/2
f 2/18/2 60/20/2 59/67/2
f 62/72/2 61/73/2 60/20/2
f 65/22/2 63/71/2 60/20/2
f 63/71/2 62/72/2 60/20/2
f 69/25/17 68/10/17 77/47/17
f 76/23/6 75/74/6 73/75/6
f 75/74/6 74/76/6 73/75/6
f 69/25/6 77/47/6 76/23/6
f 71/77/6 70/78/6 72/24/6
f 70/78/6 69/25/6 72/24/6
f 73/75/6 72/24/6 76/23/6
f 78/26/5 87/39/5 4/27/5
f 78/26/6 86/28/6 85/29/6
f 85/29/6 84/79/6 83/30/6
f 83/30/6 82/80/6 79/31/6
f 82/80/6 81/81/6 80/82/6
f 79/31/6 82/80/6 80/82/6
f 79/31/6 78/26/6 85/29/6
f 19/34/18 18/36/18 27/83/18
f 26/32/7 25/84/7 23/85/7
f 25/84/7 24/86/7 23/85/7
f 19/34/19 27/83/19 26/32/19
f 21/87/7 20/88/7 22/33/7
f 20/88/7 19/34/7 22/33/7
f 23/85/7 22/33/7 26/32/7
f 17/37/20 88/40/20 87/39/20
f 87/39/21 6/6/21 17/37/21
f 6/6/1 28/35/1 17/37/1
f 28/35/1 27/83/1 18/36/1
