{
    "asset" : {
        "generator" : "Khronos glTF Blender I/O v1.8.19",
        "version" : "2.0"
    },
    "scene" : 0,
    "scenes" : [
        {
            "name" : "Scene",
            "nodes" : [
                0,
                1,
                2
            ]
        }
    ],
    "nodes" : [
        {
            "mesh" : 0,
            "name" : "box"
        },
        {
            "mesh" : 1,
            "name" : "techpackZeichenfla\u0308che 1@3x.001",
            "scale" : [
                4,
                4,
                4
            ],
            "translation" : [
                0.5420491695404053,
                0,
                -1.0840985774993896
            ]
        },
        {
            "mesh" : 2,
            "name" : "kehle"
        }
    ],
    "meshes" : [
        {
            "name" : "techpackZeichenfla\u0308che 1@3x",
            "primitives" : [
                {
                    "attributes" : {
                        "POSITION" : 0,
                        "NORMAL" : 1,
                        "TEXCOORD_0" : 2
                    },
                    "indices" : 3
                }
            ]
        },
        {
            "name" : "techpackZeichenfla\u0308che 1@3x.001",
            "primitives" : [
                {
                    "attributes" : {
                        "POSITION" : 4,
                        "NORMAL" : 5,
                        "TEXCOORD_0" : 6
                    },
                    "indices" : 7
                }
            ]
        },
        {
            "name" : "Plane",
            "primitives" : [
                {
                    "attributes" : {
                        "POSITION" : 8,
                        "NORMAL" : 9,
                        "TEXCOORD_0" : 10
                    },
                    "indices" : 11
                }
            ]
        }
    ],
    "accessors" : [
        {
            "bufferView" : 0,
            "componentType" : 5126,
            "count" : 259,
            "max" : [
                0.4422995448112488,
                1.7049219608306885,
                0.43970754742622375
            ],
            "min" : [
                -0.4215852618217468,
                0.002786989789456129,
                -0.40000006556510925
            ],
            "type" : "VEC3"
        },
        {
            "bufferView" : 1,
            "componentType" : 5126,
            "count" : 259,
            "type" : "VEC3"
        },
        {
            "bufferView" : 2,
            "componentType" : 5126,
            "count" : 259,
            "type" : "VEC2"
        },
        {
            "bufferView" : 3,
            "componentType" : 5123,
            "count" : 261,
            "type" : "SCALAR"
        },
        {
            "bufferView" : 4,
            "componentType" : 5126,
            "count" : 89,
            "max" : [
                0.44783684611320496,
                0,
                0.47609999775886536
            ],
            "min" : [
                -0.44797003269195557,
                0,
                -0.46813735365867615
            ],
            "type" : "VEC3"
        },
        {
            "bufferView" : 5,
            "componentType" : 5126,
            "count" : 89,
            "type" : "VEC3"
        },
        {
            "bufferView" : 6,
            "componentType" : 5126,
            "count" : 89,
            "type" : "VEC2"
        },
        {
            "bufferView" : 7,
            "componentType" : 5123,
            "count" : 258,
            "type" : "SCALAR"
        },
        {
            "bufferView" : 8,
            "componentType" : 5126,
            "count" : 190,
            "max" : [
                5,
                9,
                4
            ],
            "min" : [
                -5,
                0,
                -6
            ],
            "type" : "VEC3"
        },
        {
            "bufferView" : 9,
            "componentType" : 5126,
            "count" : 190,
            "type" : "VEC3"
        },
        {
            "bufferView" : 10,
            "componentType" : 5126,
            "count" : 190,
            "type" : "VEC2"
        },
        {
            "bufferView" : 11,
            "componentType" : 5123,
            "count" : 1014,
            "type" : "SCALAR"
        }
    ],
    "bufferViews" : [
        {
            "buffer" : 0,
            "byteLength" : 3108,
            "byteOffset" : 0
        },
        {
            "buffer" : 0,
            "byteLength" : 3108,
            "byteOffset" : 3108
        },
        {
            "buffer" : 0,
            "byteLength" : 2072,
            "byteOffset" : 6216
        },
        {
            "buffer" : 0,
            "byteLength" : 522,
            "byteOffset" : 8288
        },
        {
            "buffer" : 0,
            "byteLength" : 1068,
            "byteOffset" : 8812
        },
        {
            "buffer" : 0,
            "byteLength" : 1068,
            "byteOffset" : 9880
        },
        {
            "buffer" : 0,
            "byteLength" : 712,
            "byteOffset" : 10948
        },
        {
            "buffer" : 0,
            "byteLength" : 516,
            "byteOffset" : 11660
        },
        {
            "buffer" : 0,
            "byteLength" : 2280,
            "byteOffset" : 12176
        },
        {
            "buffer" : 0,
            "byteLength" : 2280,
            "byteOffset" : 14456
        },
        {
            "buffer" : 0,
            "byteLength" : 1520,
            "byteOffset" : 16736
        },
        {
            "buffer" : 0,
            "byteLength" : 2028,
            "byteOffset" : 18256
        }
    ],
    "buffers" : [
        {
            "byteLength" : 20284,
            "uri" : "data:application/octet-stream;base64,"
        }
    ]
}
