<svg id="guides_hide_for_export_" data-name="guides (hide for export!)" xmlns="http://www.w3.org/2000/svg" viewBox="0 0 413.84 435.7"><defs><style>.cls-1,.cls-2,.cls-3,.cls-4,.cls-5,.cls-6{fill:none;stroke:#1d1d1b;stroke-miterlimit:10;}.cls-2,.cls-3,.cls-4,.cls-5,.cls-6{stroke-width:0.75px;}.cls-3{stroke-dasharray:9.92 3.97;}.cls-4{stroke-dasharray:9.93 3.97;}.cls-5{stroke-dasharray:9.64 3.85;}.cls-6{stroke-dasharray:9.87 3.95;}</style></defs><path id="guides_hide_for_export_2" data-name="guides (hide for export!)" class="cls-1" d="M20.61,330.51V138.45A5.59,5.59,0,0,1,22.78,134l3.95-2,4.46-44.57a3.35,3.35,0,0,1,3.33-3h74a3.86,3.86,0,0,1,3.86,3.87V132c.87.43.72,0,3.14.93,1.4.69,2.26,1.77,3.65,2.46V35.5l5-3.38,4.8-14a3.36,3.36,0,0,1,3.17-2.26h71.12a3.36,3.36,0,0,1,3.2,2.36l4.18,13.48,5,2.68V135.44l2.33.67a3.35,3.35,0,0,1,3.35-3.35h.35V88.58A3.35,3.35,0,0,1,225,85.23h76a3.35,3.35,0,0,1,3.33,3l4.8,43.44,4.24,2.9h39.28c3.33,0-.9,10.65,10,10.65,12.69,0,6.34-12.45,11.82-10.43l38.38,0a3.36,3.36,0,0,1,4.42,2.48l.78,3.8,15.4,5.8V316.08a3.35,3.35,0,0,1-1.92,3l-14.15,6.68-.25,1.53a3.6,3.6,0,0,1-3.22,3l-2.11.2V430a4.08,4.08,0,0,1-3.28,4l-3.41.68-4.18,13.49a3.34,3.34,0,0,1-3.2,2.35H328a3.34,3.34,0,0,1-3.12-2.13l-5.42-13.93-2.92-.9a4.09,4.09,0,0,1-2.88-3.91V331.15l-6,3.57-3.75,42.91a3.35,3.35,0,0,1-3.33,3.06H224.36a3.35,3.35,0,0,1-3.35-3.35V335.39l-3-4.47H118.74l-6,4v42.83a3.35,3.35,0,0,1-3.35,3.35h-75a3.36,3.36,0,0,1-3.33-3l-4.74-44Z" transform="translate(-20.11 -15.33)"/><g id="folds_hide_for_export_" data-name="folds (hide for export!)"><line class="cls-2" x1="1.08" y1="120.12" x2="6.08" y2="120.12"/><line class="cls-3" x1="10.05" y1="120.12" x2="285.69" y2="120.12"/><polyline class="cls-2" points="287.67 120.12 292.67 120.12 292.67 125.12"/><line class="cls-4" x1="292.67" y1="129.09" x2="292.67" y2="307.85"/><polyline class="cls-2" points="292.67 309.84 292.67 314.84 287.67 314.84"/><line class="cls-5" x1="283.81" y1="314.84" x2="204.8" y2="314.84"/><polyline class="cls-2" points="202.87 314.84 197.87 314.84 197.87 309.84"/><line class="cls-4" x1="197.87" y1="305.86" x2="197.87" y2="127.1"/><line class="cls-2" x1="197.87" y1="125.12" x2="197.87" y2="120.12"/><line class="cls-2" x1="97.95" y1="120.12" x2="97.95" y2="125.12"/><line class="cls-4" x1="97.95" y1="129.09" x2="97.95" y2="307.85"/><polyline class="cls-2" points="97.95 309.84 97.95 314.84 92.95 314.84"/><line class="cls-6" x1="89" y1="314.84" x2="8.06" y2="314.84"/><line class="cls-2" x1="6.08" y1="314.84" x2="1.08" y2="314.84"/><line class="cls-2" x1="389.54" y1="120.12" x2="389.54" y2="125.12"/><line class="cls-4" x1="389.54" y1="129.09" x2="389.54" y2="307.85"/><polyline class="cls-2" points="389.54 309.84 389.54 314.84 384.54 314.84"/><line class="cls-6" x1="380.59" y1="314.84" x2="299.64" y2="314.84"/><line class="cls-2" x1="297.67" y1="314.84" x2="292.67" y2="314.84"/><line class="cls-2" x1="391.94" y1="414.13" x2="386.94" y2="414.13"/><line class="cls-6" x1="382.99" y1="414.13" x2="302.04" y2="414.13"/><line class="cls-2" x1="300.07" y1="414.13" x2="295.07" y2="414.13"/><line class="cls-2" x1="195.31" y1="21.06" x2="190.31" y2="21.06"/><line class="cls-6" x1="186.36" y1="21.06" x2="105.42" y2="21.06"/><line class="cls-2" x1="103.44" y1="21.06" x2="98.44" y2="21.06"/></g></svg>